<svg height="24" viewBox="0 0 24 24" width="24" xmlns="http://www.w3.org/2000/svg"><path d="m17.0898 8.9999.695-4.17 2.781 4.17zm-.254 1h3.571l-6.786 7.858zm-9.672 0 3.215 7.858-6.787-7.858zm-.254-1h-3.476l2.781-4.17zm.891-.735-.711-4.265h3.91zm5.199-4.265h3.91l-.711 4.265zm-4.5 5 3.5-4.667 3.5 4.667zm7.255 1-3.755 9.18-3.755-9.18zm6.161-.777-4-6c-.001-.002-.004-.003-.005-.005-.042-.061-.097-.111-.163-.148-.019-.011-.04-.014-.059-.023-.036-.014-.068-.034-.107-.04-.016-.003-.032.003-.049.001-.011 0-.021-.008-.033-.008h-11c-.012 0-.022.008-.034.008-.016.002-.031-.004-.048-.001-.039.006-.071.026-.106.04-.02.009-.041.012-.059.023-.066.037-.122.087-.163.148-.002.002-.004.003-.006.005l-4 6c-.124.187-.109.434.038.604l9.5 11c.021.025.05.036.075.056.022.017.041.036.066.049.149.082.325.082.474 0 .025-.013.044-.032.066-.049.025-.02.054-.031.076-.056l9.5-11c.147-.17.162-.417.037-.604z"/></svg>