<svg viewBox="0 0 32 32" xmlns="http://www.w3.org/2000/svg"><path d="m8.8125 3-.6875.71875-4.40625 4.40625-.71875.6875 7.1875 7.1875-5 5-.0625.3125-1.09375 5.5-.3125 1.46875 1.46875-.3125 5.5-1.09375.3125-.0625 5-5 7.15625 7.15625.6875-.71875 4.40625-4.40625.71875-.6875-7.15625-7.15625 4.9375-4.9375c1.609375-1.609375 1.609375-4.203125 0-5.8125-.804687-.804687-1.855469-1.21875-2.90625-1.21875s-2.101562.414063-2.90625 1.21875l-4.9375 4.9375zm0 2.84375 1.9375 1.96875-1.46875 1.46875 1.4375 1.4375 1.46875-1.46875 2.375 2.375-2.96875 2.96875-5.78125-5.78125zm15.03125.125c.519531 0 1.046875.234375 1.5.6875.902344.902344.902344 2.066406 0 2.96875l-.65625.65625-2.96875-2.96875.65625-.65625c.453125-.453125.949219-.6875 1.46875-.6875zm-3.53125 2.75 2.96875 2.96875-12.09375 12.09375c-.660156-1.269531-1.699219-2.308594-2.96875-2.96875zm.09375 8.6875 2.375 2.375-1.5 1.5 1.4375 1.4375 1.5-1.5 1.90625 1.90625-3 3-5.71875-5.71875zm-13.46875 5c1.199219.503906 2.152344 1.457031 2.65625 2.65625l-3.3125.65625z"/></svg>